HIERARCHY
ROOT Hips
{
	OFFSET 0.000000 0.000000 0.000000
	CHANNELS 6 Xposition Yposition Zposition Xrotation Yrotation Zrotation
	JOINT LeftUpLeg_virtual
	{
		OFFSET 0.000000 0.000000 0.000000
		CHANNELS 3 Xrotation Yrotation Zrotation
		JOINT LeftUpLeg
		{
			OFFSET 13.026900 -6.336304 -1.092800
			CHANNELS 3 Xrotation Yrotation Zrotation
			JOINT LeftLeg
			{
				OFFSET 0.524474 -46.096886 9.782700
				CHANNELS 3 Xrotation Yrotation Zrotation
				JOINT LeftFoot
				{
					OFFSET -0.524474 -53.427422 -12.948200
					CHANNELS 3 Xrotation Yrotation Zrotation
					JOINT LeftToeBase
					{
						OFFSET 0.192200 -14.009700 16.364100
						CHANNELS 3 Xrotation Yrotation Zrotation
						JOINT LeftToe_End
						{
							OFFSET -1.784700 -0.561700 9.474800
							CHANNELS 3 Xrotation Yrotation Zrotation
							End Site
							{
								OFFSET 0 0 0
							}
						}
					}
				}
			}
		}
	}
	JOINT RightUpLeg_virtual
	{
		OFFSET 0.000000 0.000000 0.000000
		CHANNELS 3 Xrotation Yrotation Zrotation
		JOINT RightUpLeg
		{
			OFFSET -12.883000 -6.336304 -1.092800
			CHANNELS 3 Xrotation Yrotation Zrotation
			JOINT RightLeg
			{
				OFFSET -0.524587 -46.096825 9.782800
				CHANNELS 3 Xrotation Yrotation Zrotation
				JOINT RightFoot
				{
					OFFSET 0.524587 -53.427383 -12.948300
					CHANNELS 3 Xrotation Yrotation Zrotation
					JOINT RightToeBase
					{
						OFFSET -0.192200 -14.009700 16.364100
						CHANNELS 3 Xrotation Yrotation Zrotation
						JOINT RightToe_End
						{
							OFFSET 1.784700 -0.561700 9.474800
							CHANNELS 3 Xrotation Yrotation Zrotation
							End Site
							{
								OFFSET 0 0 0
							}
						}
					}
				}
			}
		}
	}
	JOINT Spine_virtual
	{
		OFFSET 0.000000 0.000000 0.000000
		CHANNELS 3 Xrotation Yrotation Zrotation
		JOINT Spine
		{
			OFFSET 0.072000 7.257294 -0.789700
			CHANNELS 3 Xrotation Yrotation Zrotation
			JOINT Spine1
			{
				OFFSET 0.000000 12.508769 -0.658067
				CHANNELS 3 Xrotation Yrotation Zrotation
				JOINT Spine1_split
				{
					OFFSET 0.000000 12.508769 -0.658067
					CHANNELS 3 Xrotation Yrotation Zrotation
					JOINT Spine2
					{
						OFFSET 0.000000 12.508769 -0.658067
						CHANNELS 3 Xrotation Yrotation Zrotation
						JOINT Neck_virtual
						{
							OFFSET 0.000000 0.000000 0.000000
							CHANNELS 3 Xrotation Yrotation Zrotation
							JOINT Neck
							{
								OFFSET 0.000000 14.033295 7.520400
								CHANNELS 3 Xrotation Yrotation Zrotation
								JOINT Head
								{
									OFFSET 0.000000 8.198502 5.703100
									CHANNELS 3 Xrotation Yrotation Zrotation
									JOINT HeadTop_End
									{
										OFFSET 0.000000 17.760803 13.332701
										CHANNELS 3 Xrotation Yrotation Zrotation
										End Site
										{
											OFFSET 0 0 0
										}
									}
								}
							}
						}
						JOINT LeftShoulder_virtual
						{
							OFFSET 0.000000 0.000000 0.000000
							CHANNELS 3 Xrotation Yrotation Zrotation
							JOINT LeftShoulder
							{
								OFFSET 6.292450 5.785301 -0.669000
								CHANNELS 3 Xrotation Yrotation Zrotation
								JOINT LeftShoulder_split
								{
									OFFSET 6.292450 5.785301 -0.669000
									CHANNELS 3 Xrotation Yrotation Zrotation
									JOINT LeftArm
									{
										OFFSET 13.907140 -6.093903 1.965100
										CHANNELS 3 Xrotation Yrotation Zrotation
										JOINT LeftForeArm
										{
											OFFSET 34.140198 0.000000 0.000000
											CHANNELS 3 Xrotation Yrotation Zrotation
											JOINT LeftHand
											{
												OFFSET 40.960209 0.000000 0.000000
												CHANNELS 3 Xrotation Yrotation Zrotation
												End Site
												{
													OFFSET 0 0 0
												}
											}
										}
									}
								}
							}
						}
						JOINT RightShoulder_virtual
						{
							OFFSET 0.000000 0.000000 0.000000
							CHANNELS 3 Xrotation Yrotation Zrotation
							JOINT RightShoulder
							{
								OFFSET -6.292450 5.785301 -0.669000
								CHANNELS 3 Xrotation Yrotation Zrotation
								JOINT RightShoulder_split
								{
									OFFSET -6.292450 5.785301 -0.669000
									CHANNELS 3 Xrotation Yrotation Zrotation
									JOINT RightArm
									{
										OFFSET -13.907140 -6.093903 1.965100
										CHANNELS 3 Xrotation Yrotation Zrotation
										JOINT RightForeArm
										{
											OFFSET -34.140198 0.000000 0.000000
											CHANNELS 3 Xrotation Yrotation Zrotation
											JOINT RightHand
											{
												OFFSET -40.960209 0.000000 0.000000
												CHANNELS 3 Xrotation Yrotation Zrotation
												End Site
												{
													OFFSET 0 0 0
												}
											}
										}
									}
								}
							}
						}
					}
				}
			}
		}
	}
}
MOTION
Frames: 10
Frame Time: 0.03333333
0.888580 83.582657 1.044350 0.000000 0.000000 0.000000 26.176249 -13.602346 -2.096822 -98.147134 -6.633121 3.638868 53.264195 14.208378 -7.437171 30.415382 24.484529 1.490378 -6.078814 0.975676 1.036607 0.000000 0.000000 0.000000 25.144824 -11.694010 -3.851104 10.231088 -12.246440 1.757115 56.351216 1.092021 3.893575 -20.386863 -17.828703 30.684536 -33.617255 1.242085 2.254331 0.000000 0.000000 0.000000 19.801017 -11.913742 -5.469084 10.331846 14.581715 -10.558821 1.314009 4.189582 -0.688297 0.408367 1.467099 0.370897 0.000000 0.000000 0.000000 1.870680 4.432985 -0.730213 -0.806386 -4.024204 3.828610 -3.357016 -9.085096 12.026443 0.000000 0.000000 0.000000 2.759869 4.232465 -0.771729 1.634743 2.461972 -15.721830 -1.115658 -0.369150 -1.977681 -4.298833 24.574966 -35.929858 1.640750 -21.249893 -0.764417 0.000000 0.000000 0.000000 2.660226 4.159805 -0.652054 3.759888 11.938804 -6.276334 0.903063 0.420070 2.280268 -46.916631 65.501719 14.554732 -170.896975 76.619539 168.844038 0.000000 0.000000 0.000000 
-0.290616 83.421165 4.091145 0.000000 0.000000 0.000000 26.953725 -13.600111 -2.270851 -98.466671 -6.628165 4.187142 53.474483 13.419518 -7.246622 29.833354 24.303937 1.412026 -5.998663 0.976917 1.014221 0.000000 0.000000 0.000000 26.448294 -10.383932 -4.317259 9.381557 -12.722266 0.395132 54.662909 1.449033 4.179310 -18.301888 -17.238754 30.299819 -34.017142 0.913899 2.964062 0.000000 0.000000 0.000000 21.176276 -11.320519 -5.472401 10.801649 14.119289 -10.976789 1.595857 4.003346 -0.662857 0.615785 1.124027 0.237969 0.000000 0.000000 0.000000 2.041465 4.326748 -0.772757 -0.795991 -3.507645 3.640416 -3.381173 -9.501093 11.974117 0.000000 0.000000 0.000000 2.951007 4.027863 -0.756099 1.600041 1.600553 -16.057276 -1.698581 -1.230572 -2.306746 -6.319409 23.297014 -35.662511 1.786745 -22.907237 -0.734906 0.000000 0.000000 0.000000 2.703445 3.974803 -0.568348 3.803063 12.291982 -6.070854 0.944399 0.180019 2.261247 -44.282790 64.550069 11.707988 -169.354745 77.148025 167.548761 0.000000 0.000000 0.000000 
-2.538957 83.156250 7.887127 0.000000 0.000000 0.000000 28.485953 -13.161592 -2.308206 -99.655233 -6.871835 4.883482 55.060802 11.863860 -6.915488 27.918473 23.984763 1.386325 -6.220322 0.962190 0.945353 0.000000 0.000000 0.000000 28.704867 -8.438608 -4.657110 6.017864 -12.699817 -2.275361 53.278105 1.553747 4.336652 -14.443007 -16.892543 28.801426 -34.229650 0.135855 4.921968 0.000000 0.000000 0.000000 23.654593 -10.684072 -5.309885 11.825762 13.023601 -11.604053 1.712815 3.736893 -0.794056 1.073536 0.962436 -0.035057 0.000000 0.000000 0.000000 2.112249 4.155254 -0.981305 -1.130136 -2.934546 3.417203 -3.846754 -10.265226 12.056737 0.000000 0.000000 0.000000 2.887636 3.753838 -0.878223 1.469022 0.366368 -17.009589 -2.485251 -1.396576 -2.890502 -9.151775 21.491991 -34.340658 2.166600 -26.465161 -0.414287 0.000000 0.000000 0.000000 2.543976 3.670674 -0.666812 3.805903 12.880924 -5.469439 0.682399 0.275671 2.165566 -38.596675 61.932262 6.255611 -169.110580 76.288029 167.413319 0.000000 0.000000 0.000000 
-5.240969 82.835442 11.742863 0.000000 0.000000 0.000000 30.516387 -12.298787 -2.247156 -101.415789 -7.099274 5.643656 57.563448 9.845059 -6.504486 24.996933 23.431579 1.366326 -6.912606 0.907316 0.969238 0.000000 0.000000 0.000000 31.412221 -6.417846 -4.804874 0.098292 -12.303059 -5.939746 52.933136 1.377471 4.351128 -9.908796 -17.279636 26.127524 -33.991475 -0.862349 7.357378 0.000000 0.000000 0.000000 26.858517 -10.022510 -5.012277 13.161200 11.499066 -12.308009 1.637036 3.415836 -1.021309 1.465246 0.815665 -0.085175 0.000000 0.000000 0.000000 2.086624 3.924411 -1.269436 -1.789099 -2.382603 3.118248 -4.723118 -11.263726 12.194752 0.000000 0.000000 0.000000 2.662304 3.451192 -1.100559 1.260575 -0.970803 -18.496700 -3.315519 -0.894378 -3.522457 -11.756811 19.492322 -32.455638 2.680208 -31.161273 0.132212 0.000000 0.000000 0.000000 2.229737 3.300780 -0.901416 3.815467 13.583213 -4.641704 0.297381 0.670222 2.027400 -32.362256 58.135702 0.820735 -170.159355 74.051709 168.467968 0.000000 0.000000 0.000000 
-7.953176 82.632889 15.596439 0.000000 0.000000 0.000000 32.720175 -11.143378 -2.197920 -103.400929 -7.054325 6.478085 60.343950 7.621307 -6.068796 21.694282 22.720295 1.129576 -7.807163 0.790997 1.155702 0.000000 0.000000 0.000000 34.023816 -4.911283 -4.710144 -8.441382 -11.820617 -10.334577 53.962944 1.077036 4.280547 -5.308779 -18.224300 23.216590 -33.483319 -1.672742 9.236986 0.000000 0.000000 0.000000 30.202495 -9.283547 -4.682844 14.648539 9.771173 -12.984692 1.435116 3.114694 -1.285364 1.679739 0.762837 0.068801 0.000000 0.000000 0.000000 1.974325 3.656651 -1.551161 -2.588917 -1.946054 2.786786 -5.859129 -12.227417 12.239594 0.000000 0.000000 0.000000 2.375292 3.160295 -1.341976 0.998545 -2.255603 -20.337998 -3.952820 -0.286657 -3.962320 -13.485958 17.426319 -30.379114 3.136488 -36.486891 0.767837 0.000000 0.000000 0.000000 1.861380 2.933800 -1.180299 3.838040 14.300444 -3.810550 0.024314 1.207466 1.866739 -26.934658 53.953344 -3.311890 -171.747402 70.839505 169.982344 0.000000 0.000000 0.000000 
-10.472332 82.743591 19.568848 0.000000 0.000000 0.000000 35.017304 -9.842340 -2.280158 -105.219057 -6.462696 7.549733 62.780906 5.530248 -5.690045 18.224094 22.110781 0.694822 -8.296985 0.618614 1.489232 0.000000 0.000000 0.000000 36.249955 -4.326302 -4.370229 -18.667472 -11.592249 -15.127605 56.295351 0.947683 4.207295 -1.093967 -19.203340 20.786858 -32.667716 -1.988775 9.820221 0.000000 0.000000 0.000000 33.391962 -8.512406 -4.495622 16.070252 8.101551 -13.534462 1.232705 2.885397 -1.543220 1.459611 0.817082 0.211523 0.000000 0.000000 0.000000 1.857503 3.368630 -1.792582 -3.348590 -1.636518 2.527340 -7.011825 -12.998623 12.100341 0.000000 0.000000 0.000000 2.108509 2.907981 -1.562461 0.701072 -3.452467 -22.146004 -4.150919 0.345373 -4.071203 -14.156137 15.514056 -28.535243 3.308954 -41.690655 1.300698 0.000000 0.000000 0.000000 1.535785 2.613934 -1.435395 3.889859 15.046990 -3.048275 -0.263070 1.757430 1.837396 -22.796485 50.104191 -5.841810 -173.251833 67.537846 171.390989 0.000000 0.000000 0.000000 
-12.920099 83.191910 23.771038 0.000000 0.000000 0.000000 37.237280 -8.427947 -2.652883 -106.440254 -5.463697 8.988606 64.422740 3.671794 -5.295748 14.543838 21.807040 0.065521 -8.146899 0.423710 1.823336 0.000000 0.000000 0.000000 38.169177 -4.347523 -4.037660 -29.414794 -11.888758 -20.139953 59.007534 1.247437 4.164786 2.256804 -19.760868 19.108445 -31.050959 -1.651054 8.878656 0.000000 0.000000 0.000000 36.342791 -7.466328 -4.680531 17.320670 6.595494 -13.926629 1.126565 2.672259 -1.814611 1.182860 0.698155 0.375866 0.000000 0.000000 0.000000 1.841020 3.077022 -1.982898 -4.030834 -1.417977 2.345901 -7.936138 -13.601920 11.804351 0.000000 0.000000 0.000000 1.927838 2.694700 -1.757941 0.371921 -4.682200 -23.638556 -3.961684 0.522877 -3.756943 -14.500319 13.773444 -27.047114 3.129904 -45.958017 1.628616 0.000000 0.000000 0.000000 1.283453 2.338729 -1.645431 3.926040 15.724286 -2.292394 -0.606413 2.299881 1.948766 -19.882961 46.950399 -7.054936 -174.490583 64.836670 172.557981 0.000000 0.000000 0.000000 
-15.185162 83.916458 27.809452 0.000000 0.000000 0.000000 39.232586 -7.129831 -3.352067 -106.814924 -4.372432 10.812604 65.337234 1.933196 -4.777046 10.546015 21.888921 -0.796711 -7.457458 0.259063 2.000529 0.000000 0.000000 0.000000 40.078594 -4.716382 -4.047980 -39.323226 -12.807307 -24.939763 60.368320 1.691248 4.134503 4.449888 -19.779043 17.741408 -28.741733 -0.766800 6.648898 0.000000 0.000000 0.000000 39.043253 -6.546878 -5.247451 18.369463 5.357217 -14.015927 1.116751 2.463480 -2.117422 1.224471 0.310610 0.474409 0.000000 0.000000 0.000000 1.905004 2.811004 -2.145032 -4.593449 -1.317318 2.289962 -8.466639 -13.912690 11.387678 0.000000 0.000000 0.000000 1.867763 2.515538 -1.960685 0.054901 -6.002705 -24.564391 -3.571703 0.224305 -3.095717 -15.045585 11.957896 -25.930926 2.658641 -48.755663 1.696347 0.000000 0.000000 0.000000 1.193532 2.118794 -1.855736 3.895849 16.237832 -1.538033 -0.852714 2.811984 2.170549 -17.870142 44.576212 -7.469952 -175.503937 62.952651 173.573671 0.000000 0.000000 0.000000 
-17.202356 84.816383 31.607407 0.000000 0.000000 0.000000 41.175560 -6.069037 -4.354895 -106.551921 -3.544159 12.773119 65.927814 0.270468 -4.093290 6.456076 22.197784 -2.018352 -6.617608 0.151271 1.974250 0.000000 0.000000 0.000000 42.055992 -4.973476 -4.677798 -47.478793 -14.087240 -29.060102 59.392081 1.923312 4.100534 5.957249 -19.632120 16.313065 -26.340981 0.263513 3.837792 0.000000 0.000000 0.000000 41.582164 -5.952121 -6.106624 19.200739 4.468863 -13.695673 1.207433 2.274874 -2.446424 1.251740 -0.148969 0.579502 0.000000 0.000000 0.000000 1.977301 2.568453 -2.307024 -5.022155 -1.318243 2.333744 -8.654779 -14.008463 10.976753 0.000000 0.000000 0.000000 1.917378 2.371339 -2.225030 -0.186758 -7.473659 -24.535739 -2.819630 -0.327303 -2.512289 -16.033785 9.885354 -25.179149 2.015450 -49.783548 1.533912 0.000000 0.000000 0.000000 1.309850 1.962385 -2.103434 3.826517 16.616356 -0.796709 -0.891148 3.282419 2.425367 -16.526263 42.924993 -7.397766 -176.417721 61.761487 174.590960 0.000000 0.000000 0.000000 
-19.178030 85.761314 35.250332 0.000000 0.000000 0.000000 43.163691 -5.035096 -5.699442 -105.938010 -3.342321 14.715694 66.620333 -1.423876 -3.227083 2.902403 22.566076 -3.794662 -6.144804 0.080280 1.774003 0.000000 0.000000 0.000000 44.087481 -5.040566 -5.830106 -54.064270 -15.050013 -32.146190 55.849890 1.713637 4.035749 7.464640 -19.612379 15.269212 -24.333116 1.041778 1.269759 0.000000 0.000000 0.000000 43.949102 -5.455818 -7.228149 19.890066 3.903033 -12.998181 1.374080 2.136300 -2.778975 1.141305 -0.518777 0.694732 0.000000 0.000000 0.000000 2.002021 2.359922 -2.458219 -5.213272 -1.380295 2.426861 -8.757361 -14.022088 10.692404 0.000000 0.000000 0.000000 2.059721 2.241920 -2.523972 -0.298989 -9.051776 -23.358504 -1.782372 -1.243241 -2.196088 -17.457798 7.539216 -24.512601 1.442046 -49.440618 1.336457 0.000000 0.000000 0.000000 1.538265 1.851951 -2.350031 3.714192 16.865298 -0.051894 -0.824987 3.806544 2.664952 -15.564948 42.050531 -7.182078 -177.367527 60.739424 175.727927 0.000000 0.000000 0.000000 
